<svg width="570" height="468" viewBox="0 0 570 468" fill="none" xmlns="http://www.w3.org/2000/svg">
<path d="M390.616 452.026C380.599 454.335 370.626 456.866 360.553 458.895C349.443 461.133 338.276 463.156 327.065 464.804C319.378 465.934 311.583 466.431 303.818 466.907C295.226 467.433 286.604 468.031 278.011 467.859C259.636 467.492 241.032 468.246 222.967 465.557C204.287 462.776 185.968 457.01 167.806 451.508C154.892 447.597 142.234 442.537 129.971 436.883C122.213 433.306 115.468 427.573 108.138 423.019C86.965 409.866 69.3465 392.549 52.81 374.284C43.5394 364.044 39.5481 350.448 35.619 337.264C34.4243 333.255 34.0289 328.947 32.4186 325.135C29.4347 318.071 29.8547 310.761 29.5376 303.405C28.7937 286.144 31.4311 269.535 37.5552 253.37C41.5041 242.946 44.0554 231.922 48.731 221.863C54.5549 209.333 62.0003 197.562 68.4928 185.33C69.1036 184.179 68.4619 181.543 67.4615 180.49C60.9363 173.621 53.7495 167.348 47.5405 160.217C36.7086 147.777 26.2237 135.165 18.1014 120.501C10.5868 106.933 5.20357 92.7387 0.641065 78.123C-1.79322 70.325 2.95239 57.1141 10.6918 52.9757C20.1088 47.9404 29.8732 43.4916 39.7334 39.3793C43.6763 37.7349 48.2498 37.2059 52.581 36.961C67.7218 36.1046 82.9219 34.6141 98.0237 35.2276C113.066 35.8387 127.875 39.192 141.194 47.0533C141.634 47.313 142.336 47.1285 143.489 46.8628C144.217 45.9862 144.373 45.3978 144.529 44.8095C144.529 44.8095 144.6 44.895 144.802 44.774C145.189 44.3119 145.375 43.9709 145.56 43.63C145.516 43.3331 145.623 43.1097 146.35 42.8125C147.082 42.3958 147.348 42.1264 147.614 41.8571C147.614 41.8571 147.504 41.9702 147.813 41.9505C152.603 38.8292 157.123 35.7833 161.547 32.6036C163.975 30.8587 166.241 28.8882 168.58 27.0194C168.58 27.0194 168.931 26.8552 169.489 26.9496C170.893 26.5967 171.738 26.1493 172.583 25.7019C173.63 25.0813 174.677 24.4607 176.425 23.8759C178.613 22.9475 180.1 21.9835 181.588 21.0195C181.588 21.0195 181.936 20.8565 182.541 20.9662C189.762 19.0139 196.302 16.6533 203.011 14.9543C215.467 11.7996 228.02 9.03107 240.533 6.10168C255.9 4.38425 271.267 2.66681 287.561 0.948181C299.559 1.27676 310.631 1.60654 321.702 1.93631C326.683 2.60721 331.727 2.98071 336.632 4.01105C346.764 6.13928 356.823 8.61755 367.487 11.3168C371.99 13.2951 375.854 15.0977 379.863 16.4792C386.495 18.7642 393.22 20.7778 399.905 22.9058C399.905 22.9058 400.236 22.8671 400.466 23.3C403.026 24.7891 405.358 25.8453 407.69 26.9016C407.69 26.9016 407.62 26.9354 407.775 27.1194C408.239 27.5098 408.547 27.716 408.856 27.9223C412.924 30.0024 417.199 31.762 421.011 34.2356C427.145 38.2159 432.974 42.6677 439.825 47.5586C434.998 51.4301 430.864 54.5117 427.008 57.9076C423.64 60.8733 417.84 62.0293 417.966 69.6944C426.652 62.8959 434.085 56.7037 441.903 51.0443C454.629 41.8318 469.372 37.8584 484.579 34.8088C497.119 32.2939 509.693 31.8993 522.355 31.9645C534.822 32.0287 547.141 33.5055 559.288 36.2986C562.143 36.9552 565.059 37.7084 567.641 39.019C568.686 39.549 569.505 41.7343 569.406 43.0922C569.016 48.4506 568.222 53.7795 567.17 59.6583C564.401 69.8252 562.039 79.4531 559.677 89.0811C559.677 89.0811 559.615 88.9946 559.406 89.1411C559.006 89.8629 558.814 90.4382 558.622 91.0134C558.56 91.5957 558.498 92.1779 557.876 93.1008C555.751 98.2998 554.187 103.158 552.623 108.016C545.109 124.699 538.871 142.041 526.871 157.013C525.73 158.239 525.211 159.184 524.692 160.129C524.692 160.129 524.714 160.021 524.406 159.989C520.606 163.976 517.114 167.994 513.622 172.013C514.048 174.531 514.014 177.242 514.977 179.534C520.422 192.487 526.986 205.042 531.478 218.304C536.739 233.838 540.411 249.922 544.43 265.853C545.26 269.143 544.601 272.811 544.605 276.305C544.614 284.67 545.346 293.114 544.454 301.382C542.752 317.144 540.659 333.088 531.597 346.676C526.214 354.748 519.737 362.122 513.425 369.532C508.513 375.297 503.408 380.973 497.829 386.078C489.775 393.449 481.354 400.44 472.836 407.276C462.859 415.284 452.609 422.951 441.819 430.912C440.312 431.723 439.464 432.388 438.616 433.053C438.616 433.053 438.62 432.97 438.404 433.019C438.001 433.342 437.813 433.616 437.626 433.89C437.626 433.89 437.273 434.049 436.691 433.952C434.108 434.632 432.1 435.393 430.108 436.192C419.966 440.256 409.829 444.332 399.69 448.401C396.667 449.614 393.641 450.818 390.616 452.026ZM321.701 364.178C326.318 359.61 331.057 355.158 335.527 350.45C345.04 340.434 350.142 328.393 350.462 314.627C350.897 295.922 345.337 279.178 333.764 264.236C327.843 256.59 323.092 248.037 317.615 239.59C315.809 240.034 313.457 240.835 311.04 241.168C301.421 242.494 291.748 244.868 282.158 244.598C270.692 244.275 259.291 241.645 247.862 240.013C244.165 239.485 241.914 240.482 240.214 244.406C236.079 253.949 231.704 263.462 226.487 272.442C221.166 281.601 217.32 291.03 215.049 301.41C211.546 317.415 212.59 332.568 221.965 346.247C226.529 352.908 232.424 358.657 237.255 365.43C235.656 370.91 238.854 374.7 242.155 378.155C251.184 387.604 262.752 392.202 275.175 395.436C293.533 400.215 317.544 386.926 322.68 368.554C322.977 367.493 321.83 366.029 321.701 364.178ZM344.117 163.953C341.069 167.66 337.83 171.229 335.01 175.103C328.136 184.547 335.155 201.458 346.719 203.592C347.045 203.652 347.379 203.667 347.71 203.694C353.234 204.131 358.856 204.063 364.259 205.12C372.293 206.692 380.658 207.992 388 211.343C398.646 216.201 405.375 225.406 411.119 235.702C419.502 250.725 422.997 265.893 417.76 282.69C414.899 291.865 412.627 301.223 409.779 311.632C419.589 308.727 428.867 306.538 437.705 303.189C444.99 300.429 452.915 298.018 457.465 290.772C468.701 272.878 469.396 253.786 462.419 234.472C458.427 223.419 453.407 212.631 447.793 202.297C440.508 188.887 430.423 177.615 417.89 168.697C406.093 160.302 392.339 157.248 378.614 153.825C365.204 150.481 354.183 153.995 344.117 163.953ZM146.396 179.242C145.366 180.081 144.128 180.759 143.337 181.782C135.053 192.497 126.57 203.073 118.728 214.105C115.048 219.281 111.11 225.072 109.965 231.093C107.219 245.539 105.639 260.259 110.746 274.753C120.855 303.445 134.093 314.623 160.491 314.905C162.474 314.926 164.464 314.32 166.586 313.985C162.589 305.629 158.434 298.246 155.502 290.406C153.114 284.02 150.666 277.023 150.939 270.408C151.464 257.655 154.85 245.307 162.961 234.854C170.146 225.596 176.874 215.635 188.611 211.626C197.474 208.598 206.555 206.045 215.713 204.104C222.49 202.668 229.538 202.314 234.351 196.555C235.641 195.011 236.845 192.425 236.494 190.629C233.352 174.531 220.174 159.818 200.093 158.978C179.574 158.119 162.367 166.012 146.396 179.242ZM39.7716 65.4636C37.0103 66.603 33.7906 67.2008 31.6204 69.0381C29.5629 70.78 27.8791 73.6793 27.3626 76.3292C26.8184 79.1215 27.4745 82.324 28.2522 85.1709C36.6401 115.877 53.6056 140.805 78.8501 160.201C82.6912 163.153 83.7885 161.044 85.3847 158.01C93.8922 141.839 102.005 125.427 111.306 109.721C116.848 100.362 123.888 91.7697 131.065 83.5398C136.669 77.1138 136.422 72.1223 128.252 69.3253C111.654 63.6427 94.4389 59.9906 76.9482 60.2593C64.7845 60.4461 52.6638 63.4377 39.7716 65.4636ZM540.644 72.4295C540.722 70.1001 540.656 67.7553 540.903 65.4439C541.961 55.5493 540.98 54.0773 529.703 53.128C500.613 50.679 474.067 58.5769 450.221 75.2989C446.01 78.2515 442.513 82.2213 438.6 85.8003C443.017 89.7008 446.638 92.6258 449.948 95.8679C464.95 110.562 479.297 125.833 491.402 143.087C494.965 148.164 500.01 149.246 504.603 145.167C510.526 139.907 516.342 134.27 521.03 127.927C532.952 111.796 539.124 93.3673 540.644 72.4295ZM380.126 268.649C380.865 266.275 381.704 263.927 382.327 261.523C385.751 248.307 383.98 235.689 376.679 224.262C371.479 216.124 362.494 216.417 356.927 224.221C348.633 235.849 348.135 259.904 355.94 271.92C360.63 279.142 369.332 280.226 375.581 274.26C377.13 272.782 378.337 270.947 380.126 268.649ZM218.488 251.32C217.207 244.675 216.086 237.994 214.595 231.397C213.325 225.775 210.55 221.157 204.311 219.927C197.558 218.596 193.037 222.121 189.964 227.493C182.299 240.893 182.834 254.763 188.385 268.722C190.658 274.437 194.608 278.187 201.119 278.097C207.407 278.011 211.349 273.979 213.545 268.804C215.785 263.526 216.861 257.753 218.488 251.32Z" fill="#89599D"/>
<path d="M240.098 6.03564C228.02 9.03107 215.467 11.7996 203.011 14.9543C196.302 16.6533 189.762 19.0139 182.732 20.9893C193.753 14.554 206.276 11.4787 218.951 9.01334C225.793 7.68247 232.754 6.9642 240.098 6.03564Z" fill="#B57CE5"/>
<path d="M391.03 451.998C393.641 450.818 396.667 449.614 399.69 448.401C409.829 444.332 419.966 440.256 430.108 436.192C432.1 435.393 434.108 434.632 436.499 433.927C430.408 437.31 424.141 441.177 417.39 443.79C408.95 447.056 400.111 449.29 391.03 451.998Z" fill="#B57CE5"/>
<path d="M399.693 22.6027C393.22 20.7778 386.495 18.7642 379.863 16.4792C375.854 15.0977 371.99 13.2951 367.876 11.392C378.996 12.823 389.413 17.065 399.693 22.6027Z" fill="#B57CE5"/>
<path d="M168.215 26.9938C166.241 28.8882 163.975 30.8587 161.547 32.6036C157.123 35.7833 152.603 38.8292 147.756 41.8956C151.57 38.3212 155.625 34.6179 159.979 31.3086C162.339 29.5152 165.209 28.3932 168.215 26.9938Z" fill="#B57CE5"/>
<path d="M560.009 88.8816C562.039 79.4531 564.401 69.8252 567.109 60.1046C565.084 69.5687 562.712 79.1254 560.009 88.8816Z" fill="#B57CE5"/>
<path d="M321.505 1.55128C310.631 1.60654 299.559 1.27677 288.015 0.94355C289.05 0.610024 290.567 -0.044183 292.063 0.00235704C301.814 0.305549 311.56 0.76075 321.505 1.55128Z" fill="#B57CE5"/>
<path d="M513.974 171.981C517.114 167.994 520.606 163.976 524.459 160.002C521.322 164.014 517.824 167.982 513.974 171.981Z" fill="#B57CE5"/>
<path d="M552.962 107.871C554.187 103.158 555.751 98.2998 557.596 93.2053C556.352 97.8882 554.826 102.807 552.962 107.871Z" fill="#B57CE5"/>
<path d="M407.533 26.5848C405.358 25.8453 403.026 24.7891 400.604 23.3933C402.801 24.1252 405.088 25.1965 407.533 26.5848Z" fill="#B57CE5"/>
<path d="M181.236 20.9939C180.1 21.9835 178.613 22.9475 176.749 23.9139C177.877 22.9337 179.381 21.951 181.236 20.9939Z" fill="#B57CE5"/>
<path d="M524.983 159.968C525.211 159.184 525.73 158.239 526.558 157.133C526.336 157.917 525.805 158.862 524.983 159.968Z" fill="#B57CE5"/>
<path d="M438.958 433.014C439.464 432.388 440.312 431.723 441.505 431.021C440.999 431.648 440.15 432.311 438.958 433.014Z" fill="#B57CE5"/>
<path d="M172.233 25.8123C171.738 26.1493 170.893 26.5967 169.682 26.9751C170.171 26.5783 171.026 26.2505 172.233 25.8123Z" fill="#B57CE5"/>
<path d="M144.244 44.9572C144.373 45.3978 144.217 45.9862 143.8 46.759C143.679 46.3307 143.819 45.7179 144.244 44.9572Z" fill="#B57CE5"/>
<path d="M558.929 90.9041C558.814 90.4382 559.006 89.8629 559.45 89.1104C559.546 89.5536 559.391 90.1742 558.929 90.9041Z" fill="#B57CE5"/>
<path d="M145.323 43.8031C145.375 43.9709 145.189 44.3119 144.759 44.8094C144.705 44.636 144.895 44.3062 145.323 43.8031Z" fill="#B57CE5"/>
<path d="M147.328 41.9361C147.348 42.1264 147.082 42.3958 146.544 42.7869C146.53 42.6109 146.786 42.313 147.328 41.9361Z" fill="#B57CE5"/>
<path d="M408.711 27.6713C408.547 27.716 408.239 27.5098 407.758 27.0845C407.913 27.0505 408.24 27.2354 408.711 27.6713Z" fill="#B57CE5"/>
<path d="M437.896 433.881C437.813 433.616 438.001 433.342 438.446 433.021C438.524 433.274 438.345 433.573 437.896 433.881Z" fill="#B57CE5"/>
<path d="M237.717 364.819C232.424 358.657 226.529 352.908 221.965 346.247C212.59 332.568 211.546 317.415 215.049 301.41C217.32 291.03 221.166 281.601 226.487 272.442C231.704 263.462 236.079 253.949 240.214 244.406C241.914 240.482 244.165 239.485 247.862 240.013C259.291 241.645 270.692 244.275 282.158 244.598C291.748 244.868 301.421 242.494 311.04 241.168C313.457 240.835 315.809 240.034 317.615 239.59C323.092 248.037 327.843 256.59 333.764 264.236C345.337 279.178 350.897 295.922 350.462 314.627C350.142 328.393 345.04 340.434 335.527 350.45C331.057 355.158 326.318 359.61 321.187 364.54C312.427 371.213 302.622 374.106 292.775 375.723C273.259 378.929 254.357 377.075 237.717 364.819ZM299.728 332.527C301.911 326.629 304.136 320.746 306.265 314.829C308.197 309.461 306.264 305.195 300.939 303.999C288.589 301.226 276.277 301.015 264.186 305.508C258.154 307.749 255.976 312.783 258.79 318.586C260.733 322.592 263.956 326.25 264.854 330.439C267.508 342.822 276.179 343.104 285.877 342.062C287.356 341.903 288.819 341.534 290.299 341.464C295.614 341.214 298.331 338.128 299.728 332.527Z" fill="#E1D1EE"/>
<path d="M344.369 163.7C354.183 153.995 365.204 150.481 378.614 153.825C392.339 157.248 406.093 160.302 417.89 168.697C430.423 177.615 440.508 188.887 447.793 202.297C453.407 212.631 458.427 223.419 462.419 234.472C469.396 253.786 468.701 272.878 457.465 290.772C452.915 298.018 444.99 300.429 437.705 303.189C428.867 306.538 419.589 308.727 409.779 311.632C412.627 301.223 414.899 291.865 417.76 282.69C422.997 265.893 419.502 250.725 411.119 235.702C405.375 225.406 398.646 216.201 388 211.343C380.658 207.992 372.293 206.692 364.259 205.12C358.856 204.063 353.234 204.131 347.71 203.694C347.379 203.667 347.045 203.652 346.719 203.592C335.155 201.458 328.136 184.547 335.01 175.103C337.83 171.229 341.069 167.66 344.369 163.7Z" fill="#E1D1EE"/>
<path d="M146.707 179.069C162.367 166.012 179.574 158.119 200.093 158.978C220.174 159.818 233.352 174.531 236.494 190.629C236.845 192.425 235.641 195.011 234.351 196.555C229.538 202.314 222.49 202.668 215.713 204.104C206.555 206.045 197.474 208.598 188.611 211.626C176.874 215.635 170.146 225.596 162.961 234.854C154.85 245.307 151.464 257.655 150.939 270.408C150.666 277.023 153.114 284.02 155.502 290.406C158.434 298.246 162.589 305.629 166.586 313.985C164.464 314.32 162.474 314.926 160.491 314.905C134.093 314.623 120.855 303.445 110.746 274.753C105.639 260.259 107.219 245.539 109.965 231.093C111.11 225.072 115.048 219.281 118.728 214.105C126.57 203.073 135.053 192.497 143.337 181.782C144.128 180.759 145.366 180.081 146.707 179.069Z" fill="#E2D1EE"/>
<path d="M40.1478 65.32C52.6639 63.4377 64.7845 60.4461 76.9482 60.2593C94.4389 59.9906 111.654 63.6427 128.252 69.3253C136.422 72.1223 136.669 77.1138 131.065 83.5398C123.888 91.7697 116.848 100.362 111.306 109.721C102.005 125.427 93.8922 141.839 85.3847 158.01C83.7885 161.044 82.6912 163.153 78.8501 160.201C53.6056 140.805 36.6401 115.877 28.2522 85.1709C27.4745 82.324 26.8184 79.1215 27.3626 76.3292C27.8791 73.6793 29.5629 70.78 31.6204 69.0381C33.7906 67.2008 37.0103 66.603 40.1478 65.32Z" fill="#373234"/>
<path d="M540.632 72.9016C539.124 93.3673 532.952 111.796 521.03 127.927C516.342 134.27 510.526 139.907 504.603 145.167C500.01 149.246 494.965 148.164 491.402 143.087C479.297 125.833 464.95 110.562 449.948 95.8679C446.638 92.6258 443.017 89.7008 438.6 85.8003C442.513 82.2213 446.01 78.2515 450.221 75.2989C474.067 58.5769 500.613 50.679 529.703 53.128C540.98 54.0773 541.961 55.5493 540.903 65.4439C540.656 67.7553 540.722 70.1001 540.632 72.9016Z" fill="#373234"/>
<path d="M379.914 268.962C378.337 270.947 377.13 272.782 375.581 274.26C369.332 280.226 360.63 279.142 355.94 271.92C348.135 259.904 348.633 235.849 356.927 224.221C362.494 216.417 371.479 216.124 376.679 224.262C383.98 235.689 385.751 248.307 382.327 261.523C381.704 263.927 380.865 266.275 379.914 268.962ZM370.2 247.03C371.605 246.249 373.998 245.704 374.249 244.649C375.565 239.124 374.454 233.814 371.209 229.119C370.713 228.401 369.056 227.853 368.275 228.141C367.483 228.434 366.527 229.946 366.647 230.778C367.418 236.076 368.466 241.333 370.2 247.03Z" fill="#373234"/>
<path d="M218.467 251.758C216.861 257.753 215.785 263.526 213.545 268.804C211.349 273.979 207.407 278.011 201.119 278.097C194.608 278.187 190.658 274.437 188.385 268.722C182.834 254.763 182.299 240.893 189.964 227.493C193.037 222.121 197.558 218.596 204.311 219.927C210.55 221.157 213.325 225.775 214.595 231.397C216.086 237.994 217.207 244.675 218.467 251.758ZM209.161 237.952C208.234 235.329 207.623 232.523 206.247 230.162C205.573 229.005 203.481 228.675 202.03 227.97C201.777 229.387 201.159 230.854 201.344 232.212C201.784 235.44 202.483 238.649 203.324 241.8C203.704 243.222 204.671 244.486 205.372 245.822C206.625 244.758 208.186 243.889 209.029 242.564C209.647 241.592 209.322 240.02 209.161 237.952Z" fill="#373234"/>
<path d="M237.486 365.124C254.357 377.075 273.259 378.929 292.775 375.723C302.622 374.106 312.427 371.213 321.013 364.828C321.83 366.029 322.977 367.493 322.68 368.554C317.544 386.926 293.533 400.215 275.175 395.436C262.752 392.202 251.184 387.604 242.155 378.155C238.854 374.7 235.656 370.91 237.486 365.124Z" fill="#373234"/>
<path d="M299.608 332.893C298.331 338.128 295.614 341.214 290.299 341.464C288.819 341.534 287.356 341.903 285.877 342.062C276.179 343.104 267.508 342.822 264.854 330.439C263.956 326.25 260.733 322.592 258.79 318.586C255.976 312.783 258.154 307.749 264.186 305.508C276.277 301.015 288.589 301.226 300.939 303.999C306.264 305.195 308.197 309.461 306.265 314.829C304.136 320.746 301.911 326.629 299.608 332.893Z" fill="#373234"/>
<path d="M369.811 246.817C368.465 241.333 367.418 236.076 366.647 230.778C366.527 229.946 367.483 228.434 368.275 228.141C369.056 227.853 370.713 228.401 371.209 229.119C374.454 233.814 375.565 239.124 374.249 244.649C373.998 245.704 371.605 246.249 369.811 246.817Z" fill="#E2D1EE"/>
<path d="M209.289 238.334C209.322 240.02 209.647 241.592 209.029 242.564C208.186 243.889 206.625 244.758 205.372 245.822C204.671 244.486 203.704 243.222 203.324 241.8C202.483 238.649 201.784 235.44 201.344 232.212C201.159 230.854 201.777 229.387 202.03 227.97C203.481 228.675 205.573 229.005 206.247 230.162C207.623 232.523 208.234 235.329 209.289 238.334Z" fill="#E2D1EE"/>
</svg>
